<?xml version="1.0" encoding="UTF-8"?>
<svg id="Camada_2" xmlns="http://www.w3.org/2000/svg" viewBox="0 0 232.52 120.33">
  <defs>
    <style>
      .cls-1, .cls-2 {
        fill: #fff;
      }

      .cls-2, .cls-3, .cls-4, .cls-5, .cls-6, .cls-7, .cls-8 {
        fill-rule: evenodd;
      }

      .cls-3 {
        fill: #e3e7f5;
      }

      .cls-4 {
        fill: #a0aac2;
      }

      .cls-5 {
        fill: #fffdfa;
      }

      .cls-6, .cls-9 {
        fill: #434858;
      }

      .cls-7 {
        fill: #ffc622;
      }

      .cls-8 {
        fill: #d80063;
      }
    </style>
  </defs>
  <g id="Camada_1-2" data-name="Camada_1">
    <g>
      <path class="cls-7" d="M219.25,104.76c-1.4-5.17-2.8-10.34-4.2-15.52-.97,5.17-1.93,10.34-2.9,15.52h7.09Z"/>
      <path class="cls-7" d="M215.1,101.17c-3.83,1.41-7.67,2.83-11.5,4.25,3.83.98,7.67,1.96,11.5,2.93v-7.18Z"/>
      <path class="cls-7" d="M215.1,101.17c3.83,1.41,7.67,2.83,11.5,4.25-3.83.98-7.67,1.96-11.5,2.93v-7.18Z"/>
      <path class="cls-3" d="M36.47,9.67v93.12c0,1.13.82,2.04,1.82,2.04h172.55c1,0,1.82-.92,1.82-2.04V9.67H36.47ZM210.84,105.51H38.29c-1.34,0-2.43-1.22-2.43-2.72V8.99h177.4v93.8c0,1.5-1.09,2.72-2.43,2.72"/>
      <path class="cls-3" d="M212.97,9.36H36.17v-2.73c0-3.66,2.64-6.63,5.9-6.63h164.99c3.26,0,5.9,2.97,5.9,6.63v2.73Z"/>
      <path class="cls-6" d="M45.13,4.83c0,.89-.72,1.62-1.62,1.62s-1.62-.72-1.62-1.62.72-1.62,1.62-1.62,1.62.72,1.62,1.62"/>
      <path class="cls-2" d="M52.33,4.83c0,.89-.72,1.62-1.62,1.62s-1.62-.72-1.62-1.62.72-1.62,1.62-1.62,1.62.72,1.62,1.62"/>
      <path class="cls-2" d="M59.53,4.83c0,.89-.72,1.62-1.62,1.62s-1.62-.72-1.62-1.62.72-1.62,1.62-1.62,1.62.72,1.62,1.62"/>
      <path class="cls-8" d="M193.32,16.97c-.49-.6-1.24-.91-2.01-.85l-12.82,1.09c-.88.07-1.64.63-1.97,1.44-.33.81-.19,1.74.38,2.41l2.71,3.19-19.41,14.52-7.21-7.88c-.97-1.06-2.57-1.22-3.73-.38l-40.94,29.76-11.02-7.77c-1.03-.73-2.42-.68-3.4.12l-31.36,25.55c-1.2.98-1.39,2.75-.4,3.96.56.68,1.37,1.04,2.18,1.04.62,0,1.25-.21,1.78-.63l29.71-24.2,10.92,7.7c.98.69,2.3.68,3.28-.02l40.54-29.47,7.23,7.9c.98,1.07,2.6,1.22,3.76.35l21.74-16.26,2.99,3.51c.45.53,1.1.83,1.78.83.17,0,.33-.02.5-.05.84-.18,1.52-.82,1.76-1.65l3.47-12.09c.21-.74.05-1.54-.44-2.14"/>
      <rect class="cls-9" x="83.88" y="74.13" width="10.67" height="18.21"/>
      <rect class="cls-9" x="99.54" y="79.29" width="10.67" height="13.05"/>
      <rect class="cls-9" x="115.2" y="69.2" width="10.67" height="23.14"/>
      <rect class="cls-9" x="130.86" y="65.3" width="10.67" height="27.04"/>
      <rect class="cls-9" x="146.52" y="54.97" width="10.67" height="37.37"/>
      <polygon class="cls-3" points="198.26 92.53 57.35 92.53 57.35 20.04 57.87 20.04 57.87 92 198.26 92 198.26 92.53"/>
      <path class="cls-2" d="M226.52,84.93c0-.15.12-.28.28-.28h5.45c.15,0,.28.12.28.28v5.45c0,.15-.12.28-.28.28h-5.45c-.15,0-.28-.13-.28-.28v-5.45ZM227.07,90.11h4.9v-4.9h-4.9v4.9Z"/>
      <path class="cls-8" d="M3.49,39.32h41.81c1.93,0,3.49-1.68,3.49-3.75v-10c0-2.07-1.56-3.75-3.49-3.75H3.49c-1.93,0-3.49,1.68-3.49,3.75v10c0,2.07,1.56,3.75,3.49,3.75"/>
      <rect class="cls-1" x="6.65" y="28.06" width="34.33" height=".66"/>
      <rect class="cls-1" x="6.65" y="31.97" width="10.11" height=".66"/>
      <polygon class="cls-8" points="42.56 36.99 42.56 44.91 32.46 36.99 42.56 36.99"/>
      <path class="cls-4" d="M228.76,54.35c0,7.15-5.79,12.94-12.94,12.94s-12.94-5.79-12.94-12.94,5.79-12.94,12.94-12.94,12.94,5.79,12.94,12.94"/>
      <rect class="cls-1" x="210.31" y="54.09" width="2.5" height="4.29"/>
      <rect class="cls-1" x="214.14" y="48.71" width="2.5" height="9.66"/>
      <rect class="cls-1" x="217.97" y="50.71" width="2.5" height="7.66"/>
      <path class="cls-2" d="M207.73,58.22c0-.1.08-.18.18-.18h16.17c.1,0,.18.08.18.18s-.08.18-.18.18h-16.17c-.1,0-.18-.08-.18-.18"/>
      <path class="cls-8" d="M230.48,120.33h-35.02c-1.8,0-3.25-1.46-3.25-3.25v-32.24c0-1.11.9-2,2.01-2h36.27c1.11,0,2,.9,2,2v33.48c0,1.11-.9,2-2,2"/>
      <path class="cls-5" d="M211.94,104.83c-1.8,0-3.26-1.46-3.26-3.26s1.46-3.26,3.26-3.26,3.26,1.46,3.26,3.26v.02c-.01,1.79-1.47,3.24-3.26,3.24M219.76,100.05l-1.3-.23c-.15-.56-.38-1.11-.67-1.61l.76-1.08c.28-.4.23-.93-.11-1.28l-.78-.78c-.35-.34-.89-.37-1.28-.09l-1.08.76c-.51-.29-1.05-.52-1.61-.67l-.22-1.33c-.08-.47-.49-.82-.96-.83h-1.12c-.48,0-.9.35-.98.83l-.23,1.29c-.57.15-1.11.38-1.61.67l-1.07-.72c-.4-.28-.93-.23-1.28.11l-.78.78c-.34.34-.39.88-.11,1.28l.76,1.08c-.29.51-.52,1.05-.67,1.61l-1.29.23c-.48.08-.83.5-.83.98v1.1c0,.49.35.9.83.98l1.29.23c.15.56.38,1.11.67,1.61l-.76,1.08c-.28.4-.23.93.11,1.28l.78.78c.34.34.88.39,1.28.11l1.08-.76c.51.29,1.05.52,1.61.67l.23,1.29c.08.48.5.83.98.83h1.11c.49,0,.9-.35.98-.83l.23-1.29c.57-.15,1.11-.38,1.61-.67l1.05.74c.4.28.93.23,1.28-.11l.78-.78c.34-.34.39-.88.11-1.28l-.76-1.09c.29-.51.52-1.05.67-1.61l1.3-.23c.48-.08.83-.5.82-.98v-1.1c0-.48-.35-.9-.82-.98"/>
    </g>
  </g>
</svg>