<?xml version="1.0" encoding="UTF-8"?>
<svg id="Camada_2" xmlns="http://www.w3.org/2000/svg" viewBox="0 0 124.66 202.72">
  <defs>
    <style>
      .cls-1, .cls-2 {
        fill: #a0aac2;
      }

      .cls-3 {
        fill: #101017;
      }

      .cls-4 {
        fill: #fff;
      }

      .cls-4, .cls-5, .cls-2, .cls-6, .cls-7, .cls-8 {
        fill-rule: evenodd;
      }

      .cls-5 {
        fill: #e3e7f5;
      }

      .cls-6 {
        fill: #434858;
      }

      .cls-7 {
        fill: #fc6565;
      }

      .cls-8 {
        fill: #d80063;
      }
    </style>
  </defs>
  <g id="Camada_1-2" data-name="Camada_1">
    <g>
      <path class="cls-8" d="M18.63,174.3c-1.75-.39-3.18-1.17-3.46-2.85-.39-2.39.11-5.28.16-7.71.12-5.73.25-11.45.38-17.18.28-12.05.6-24.11,1.06-36.16.29-7.54.62-15.08,1.17-22.61.31-4.27.66-16.85.66-16.85,0,0,25.25-2.45,37.29-.87,9.23,1.21,20.45,3.31,28.62,6.07,2.61.88,5.22,2.03,7.86,3.49,5.59,3.09,9.54,7.75,11.79,13.66,1.52,4,2.32,8.23,2.53,12.49.11,2.22.09,8.44-1.45,11.92-.25.56-21.67-1.84-22.27-1.87l-1.88-12.95c-1.69-2.87-20.45,2.68-30.42,6.07-2.15,14.33-4.31,28.66-6.48,42.99-.94,6.19-1.88,12.39-2.84,18.58-.17,1.12-.14,2.64-.57,3.69-.76,1.89-1.46,1.43-3.7,1.41-4.22-.04-8.44-.29-12.64-.77-1.57-.18-3.88-.13-5.82-.57"/>
      <path class="cls-6" d="M54.1,202.57c.44-1.38.54-3.93-.89-4.89-5.18-1.9-9.57-4.76-12.86-7.62.25-2.15,3.06-20.03,3.29-21.97l-30.25-1.85s.84,33.73.51,35.63c.66.71,5.97,0,5.97,0,.9-.54,1.14-3.24,1.43-3.24,4.29,5.24,18.81,3.97,30.49,3.93.74,0,1.58-.06,2.32,0"/>
      <path class="cls-5" d="M85.53,141.37c15.26-4.24,31.07,4.7,35.3,19.96,4.24,15.26-4.7,31.06-19.96,35.3-15.26,4.24-31.07-4.7-35.3-19.96-4.24-15.26,4.7-31.07,19.96-35.3"/>
      <path class="cls-3" d="M101.42,154.35c-.86-.64-2.02-.65-2.89-.03l-5.75,4.08-5.84-4.26c-.86-.63-2.02-.63-2.89-.01l-4.58,3.26c-.67.48-1.06,1.25-1.06,2.07v17.75c0,.81.38,1.56,1.03,2.04l4.68,3.47c.86.64,2.02.65,2.89.03l5.75-4.07,5.84,4.26c.86.63,2.02.63,2.89.01l4.57-3.27c.67-.48,1.06-1.24,1.06-2.06v-17.75c.01-.81-.37-1.56-1.01-2.04l-4.68-3.47h0ZM85.61,181.65l.06-8.15,5.64,4.11-5.7,4.04h0ZM85.48,155.51l13.34,9.72,2.88,2.1.03-3.75.05-6.51,3.49,2.58v15.51l-23.5-16.98,3.71-2.66h0Z"/>
      <path class="cls-4" d="M93.17,143.07c2.33,0,4.67.32,6.97.96,6.67,1.85,12.22,6.19,15.62,12.22,3.41,6.03,4.26,13.02,2.41,19.69-3.82,13.77-18.14,21.86-31.9,18.03-13.77-3.82-21.86-18.13-18.03-31.9,1.85-6.67,6.19-12.22,12.22-15.62,3.94-2.23,8.3-3.37,12.71-3.37M93.2,200.44c13.77,0,26.44-9.13,30.3-23.03,2.25-8.09,1.21-16.57-2.92-23.88-4.13-7.31-10.86-12.57-18.95-14.82-8.09-2.25-16.57-1.21-23.88,2.92-7.31,4.13-12.57,10.86-14.82,18.96-4.64,16.7,5.18,34.07,21.88,38.7,2.8.78,5.63,1.15,8.4,1.15"/>
      <path class="cls-6" d="M114.39,142.97c.39-1.07.53-3.08-.6-3.87-4.16-1.63-7.64-3.99-10.24-6.32.26-1.68,2.97-15.69,3.2-17.2l-24.47-2.22s-.15,26.56-.46,28.05c.52.57,4.84.15,4.84.15.74-.4,1-2.52,1.24-2.51,3.35,4.23,15.15,3.59,24.61,3.87.6.02,1.28,0,1.88.06"/>
      <path class="cls-4" d="M48.04,33.26c.16-.07.32-.14.49-.21,2.63-1.05,5.57-.82,8.39-.64,9.05.59,18.14.5,27.17-.26.91-.08,1.86-.17,2.66-.61.86-.47,1.47-1.3,2.04-2.09,7.14-9.88,12.38-21.19,22.21-28.56.69-.52,1.5-1.03,2.34-.85.91.19,1.48,1.19,1.47,2.12-.03,3.27-3.88,5.28-4.33,8.42,2.61-.39,3.98-4.91,6.93-4.01.66.2,1.22.77,1.44,1.39.99,2.83-7.05,12.09-8.52,14.71-3.82,6.85-7.91,13.55-12.27,20.07-1.29,1.93-2.69,3.92-4.76,4.95-1.9.95-4.11.97-6.24.97-11.53,0-23.06,0-34.58,0-8.63,0-13.1-11.46-4.45-15.41"/>
      <path class="cls-7" d="M10.25,63.68c5-.53,10-1.05,15.01-1.58-.06-1.01-.12-2.01-.15-3.02-4.43-.29-8.87-.57-13.3-.9-.09.23-.13.48-.18.7-.5,1.56-.92,3.16-1.34,4.72,0,.03-.03.04-.03.07"/>
      <path class="cls-4" d="M.57,78.56c.07-.71.18-1.26.25-1.59.41-2.06.76-2.93,1.23-4.42.28-.86.48-1.74.72-2.63.03-.04.06-.08.06-.11l.96-3.45c.27-.93.51-1.82.78-2.75.42-1.56.85-3.15,1.34-4.72.05-.22.1-.48.18-.71.07-.33.15-.63.23-.92l.03-.11c.87-2.83,1.79-6.29,4.54-7.89,2.44-1.41,5.79-.61,7.7,1.46,1.64,1.78,2.28,4.25,2.13,6.62-.33,5.15-.38,10.22-.83,15.36.03-.35,5.03-1.36,5.58-1.5,2.03-.51,4.07-.99,6.11-1.44,2.04-.45,4.09-.86,6.15-1.25,1.81-.34,4.07-1.08,5.89-.93-.12,1.57.69,3.38,1.05,4.91.46,1.94.88,3.89,1.26,5.84.1.51-7.53,3.32-8.31,3.61-2.97,1.13-6,2.11-9.07,2.94-2.71.73-5.52,1.75-8.27,2.18-3.36.52-6.75.88-10.14,1.08-1.59.09-3.21.15-4.76-.21-2.18-.51-4.19-2.07-4.96-4.2-.61-1.72-.51-3.63.16-5.2"/>
      <path class="cls-2" d="M18.48,64.96c-5.16-1.11-10.95-.92-16.2-1.8,1.22-7.32,3.16-14.71,7.4-20.8,9.94-14.29,27.92-10.78,43.04-10.76,6.2.01,23.83.02,30.02.03.16,6.79.33,14.52.49,21.31-3.93,0-7.85,0-11.78,0-.74,0-2.29-.32-2.8.31-.48.58.04,2.66.17,3.34.42,2.29,1.33,4.46,2.23,6.6.7,1.66,1.4,3.32,2.1,4.99.71,1.68,1.45,3.41,2.8,4.63-12.46.26-24.85.27-37.3.24-4.31-.01-8.63-.02-12.94-.04-2.13-.01-4.56-.35-6.62-.13-.01-.69.58-7.65.24-7.73-.29-.07-.57-.14-.86-.2"/>
      <path class="cls-5" d="M37.01,82.4h51.44l4.76-31.91c-20.16-.2-31.18-.68-51.34-.88-2,11.98-2.87,20.82-4.87,32.79"/>
      <path class="cls-6" d="M65.36,66.38c-1.26,2.52-1.11,5.16.34,5.89,1.45.73,3.65-.73,4.92-3.25,1.27-2.52,1.12-5.16-.34-5.88-1.45-.73-3.65.73-4.92,3.25"/>
      <path class="cls-1" d="M33.2,81.93h54.3c.53,0,.95.43.95.95s-.43.95-.95.95h-54.3c-.53,0-.95-.43-.95-.95s.43-.95.95-.95"/>
      <path class="cls-6" d="M29.05,21.41c.06-.37.03-.79.21-1.09.93-1.56.3-2.92-.44-4.29-1.12-2.06-2.93-3.27-5.08-3.96-1.42-.45-2.85-.34-4.28.22-2.97,1.15-4.24,3.36-4.27,6.42-.01,1.16.59,2.13,1.19,3.04,1.46,2.2,3.37,3.26,6.21,2.97,2.46-.25,4.31-1.16,5.85-2.98.14-.17.42-.23.63-.34h0Z"/>
      <path class="cls-6" d="M47.99,17.94c.31-.7.41-1.54.44-2.27.03-.85.07-2.06-.24-2.86-.24-.63-.85-1.3-1.32-1.77-1.06-1.09-2.42-1.82-3.86-2.28-1.42-.45-2.85-.34-4.28.22-2.97,1.15-4.24,3.36-4.27,6.42-.01,1.16.59,2.13,1.19,3.04,1.46,2.2,3.37,3.26,6.21,2.97,1.53-.15,3.01-.61,4.27-1.51.57-.41,1.23-.93,1.62-1.52.09-.14.17-.29.24-.44"/>
      <path class="cls-4" d="M24.21,14.02c-.24.71-.27,1.46-.37,2.19-.09.67-.12,1.34-.18,2.12-1.04.36-2.35.4-2.68,1.82-.19.79-.41,1.57-.04,2.35.81,1.7,2.7,1.97,5.02.68,3.33,3.47,7.37,4.96,11.96,3.02,2-.85,3.74-2.27,4.65-4.27,1.07-2.35,1.16-5.29.23-7.7-.45-1.18-1.06-2.34-1.77-3.39-.89-1.32-2.29-2.16-3.87-2.41-1.06-.17-2.15-.12-3.22-.13-.63,0-1.26-.03-1.88.02-2.47.2-4.74,1.58-6.4,3.42-.55.61-1.05,1.3-1.36,2.06-.03.07-.06.14-.08.21"/>
      <path class="cls-6" d="M24.22,14.03c4.94-1.34,9.72-3.16,14.54-4.87-.01-.24,0-.51-.25-.64-1.77-.95-3.76-1.6-5.79-1.46-1.01.07-1.99.33-2.91.75-.82.37-1.76.88-2.45,1.45-.36.3-.67.66-.97,1.01-.89,1.04-2.13,2.32-2.17,3.76"/>
      <path class="cls-8" d="M26.06,9.82c.19.08.32.19.41.3.15.19.19.43.14.73-.05.3-.19.64-.39.97-.4.67-.98,1.27-1.33,1.49-.08.05-.17.09-.27.13-.03-.04-.06-.08-.09-.12,0,0,0,0,0-.01-.02-.05-.03-.1-.04-.16-.05-.27-.03-.59.02-.88.02-.12.04-.26.06-.4h0c.02-.16.04-.33.07-.49.05-.34.13-.68.24-.97.12-.29.26-.5.43-.6.16-.09.4-.12.76.03M24.01,12.46c0-.1.02-.19.04-.28l.22.04-.22-.04c.02-.11.04-.24.06-.39h0c.02-.16.04-.33.07-.5.06-.35.13-.73.27-1.07.13-.33.32-.65.63-.83.32-.18.71-.19,1.17.01h0c.25.11.44.25.58.43h0c.24.32.29.7.23,1.08-.06.38-.23.77-.44,1.12-.42.71-1.05,1.37-1.48,1.64-.05.03-.11.06-.16.09.02.05.02.11,0,.16-.04.12-.17.17-.29.13-.09-.03-.17-.08-.24-.13-.17.03-.35.04-.53.04-.44,0-.92-.1-1.38-.23-.93-.27-1.83-.74-2.37-1.16-.48-.38-.86-1.03-.7-1.69M24.12,13.52c-.07,0-.13,0-.21,0-.39,0-.83-.09-1.26-.22-.88-.26-1.73-.71-2.22-1.08-.4-.31-.64-.8-.54-1.23.12-.48.67-.81,1.24-.8M24.12,13.52h0c-.15-.22-.3-.47-.44-.73-.09-.15-.17-.32-.26-.47-.07-.12-.13-.24-.19-.35-.14-.25-.25-.44-.33-.54M22.9,11.42c-.09-.12-.18-.24-.26-.34l.26.34ZM22.64,11.08c-.05-.06-.09-.12-.13-.17l.13.17ZM22.51,10.9c-.12-.15-.22-.28-.34-.38l.34.38ZM22.17,10.52c-.22-.19-.5-.32-1.03-.33l1.03.33Z"/>
      <path class="cls-8" d="M41.71,6.54c-.44.88-1.2,1.59-2.1,1.99l.71-1.24c.21-.36.4-.67.69-.83.13-.07.3-.09.45-.05.11.03.19.07.24.14M39.25,9.14c1.27-.38,2.36-1.31,2.92-2.51.03-.06.03-.12,0-.18-.11-.28-.35-.43-.6-.49-.25-.06-.53-.03-.76.1-.43.23-.68.66-.88,1l-.7,1.22c-.07-.41-.18-.82-.33-1.21-.1-.26-.25-.55-.47-.77-.21-.21-.51-.38-.86-.3-.44.09-.63.48-.66.84-.03.36.1.78.35,1.06.23.25.52.43.78.6h0s.03.02.05.03c-.12,0-.22.07-.24.19-.02.12.07.24.19.26.14.02.28.04.42.06.14.02.28.04.42.06,0,0,.02,0,.03,0,.03.04.08.08.13.09.07.02.15,0,.2-.05M38.81,8.48c-.16-.13-.34-.24-.5-.34h-.01c-.27-.18-.51-.33-.7-.54-.17-.18-.26-.46-.24-.72.02-.25.13-.4.3-.44.15-.03.3.03.45.18.15.15.28.38.36.6.15.4.26.82.33,1.25"/>
    </g>
  </g>
</svg>