<?xml version="1.0" encoding="UTF-8"?>
<svg id="Camada_2" xmlns="http://www.w3.org/2000/svg" viewBox="0 0 135.62 169.96">
  <defs>
    <style>
      .cls-1 {
        fill: #83edc4;
      }

      .cls-1, .cls-2, .cls-3, .cls-4, .cls-5, .cls-6, .cls-7 {
        fill-rule: evenodd;
      }

      .cls-2 {
        fill: #5da086;
      }

      .cls-3 {
        fill: #fff;
      }

      .cls-4, .cls-8 {
        fill: #e3e7f5;
      }

      .cls-5 {
        fill: #434858;
      }

      .cls-6 {
        fill: #d80063;
      }
    </style>
  </defs>
  <g id="Camada_1-2" data-name="Camada_1">
    <g>
      <g>
        <path class="cls-3" d="M118.81,16.67h7.62c-1.04,5.56-2.08,11.12-3.11,16.67-1.5-5.56-3.01-11.12-4.51-16.67"/>
        <path class="cls-3" d="M118.81,16.67h7.62c-1.04-5.56-2.08-11.12-3.11-16.67-1.5,5.56-3.01,11.12-4.51,16.67"/>
        <path class="cls-3" d="M123.26,20.53v-7.72c4.12,1.05,8.24,2.1,12.36,3.15-4.12,1.52-8.24,3.04-12.36,4.56"/>
        <path class="cls-3" d="M123.26,20.53v-7.72c-4.12,1.05-8.24,2.1-12.36,3.15,4.12,1.52,8.24,3.04,12.36,4.56"/>
      </g>
      <g>
        <path class="cls-3" d="M111.88,127.02h4.36c-.59,3.18-1.19,6.35-1.78,9.53-.86-3.18-1.72-6.35-2.58-9.53"/>
        <path class="cls-3" d="M111.88,127.02h4.36c-.59-3.18-1.19-6.35-1.78-9.53-.86,3.18-1.72,6.35-2.58,9.53"/>
        <path class="cls-3" d="M114.42,129.22v-4.41c2.36.6,4.71,1.2,7.07,1.8-2.36.87-4.71,1.74-7.07,2.61"/>
        <path class="cls-3" d="M114.42,129.22v-4.41c-2.35.6-4.71,1.2-7.06,1.8,2.35.87,4.71,1.74,7.06,2.61"/>
      </g>
      <path class="cls-3" d="M95.63,159.83c0,5.14-4.19,9.32-9.33,9.32H10.14c-5.15,0-9.33-4.18-9.33-9.32V27.33h94.83v132.5ZM86.3,2.09H10.14C4.55,2.09,0,6.63,0,12.22v147.61c0,5.58,4.55,10.13,10.14,10.13h76.16c5.59,0,10.14-4.54,10.14-10.13V12.22c0-5.58-4.55-10.13-10.14-10.13"/>
      <path class="cls-4" d="M15.08,12.33c-1.81,0-3.3,1.51-3.3,3.4s1.49,3.4,3.3,3.4h54.24c1.81,0,3.3-1.51,3.3-3.4s-1.49-3.4-3.3-3.4H15.08ZM10.98,15.72c0-2.31,1.83-4.2,4.1-4.2h54.24c2.28,0,4.1,1.89,4.1,4.2s-1.83,4.2-4.1,4.2H15.08c-2.28,0-4.1-1.89-4.1-4.2"/>
      <path class="cls-4" d="M81.17,12.23c-1-1-2.61-1-3.61,0-1,1-1,2.61,0,3.61,1,1,2.62,1,3.61,0,1-1,1-2.61,0-3.61M76.99,11.66c1.31-1.31,3.44-1.31,4.75,0,1.31,1.31,1.31,3.44,0,4.75-1.31,1.31-3.44,1.31-4.75,0-1.31-1.31-1.31-3.44,0-4.75Z"/>
      <rect class="cls-8" x="83.06" y="14.31" width=".8" height="5.97" transform="translate(12.22 64.08) rotate(-45)"/>
      <path class="cls-4" d="M75.33,111.17H21.78c-1.3,0-2.36-1.06-2.36-2.36v-61.14c0-1.3,1.06-2.36,2.36-2.36h53.55c1.3,0,2.36,1.06,2.36,2.36v61.14c0,1.3-1.06,2.36-2.36,2.36"/>
      <path class="cls-5" d="M73.97,137.35H23.15c-2.06,0-3.72-1.7-3.72-3.8s1.67-3.8,3.72-3.8h50.82c2.06,0,3.72,1.7,3.72,3.8s-1.67,3.8-3.72,3.8"/>
      <path class="cls-5" d="M73.97,124.68H23.15c-2.06,0-3.72-1.7-3.72-3.8s1.67-3.8,3.72-3.8h50.82c2.06,0,3.72,1.7,3.72,3.8s-1.67,3.8-3.72,3.8"/>
      <path class="cls-1" d="M75.28,57.31c0,6.06-4.91,10.98-10.98,10.98s-10.98-4.92-10.98-10.98,4.92-10.98,10.98-10.98,10.98,4.92,10.98,10.98"/>
      <path class="cls-7" d="M90.49,57.31c0,6.06-4.92,10.98-10.98,10.98s-10.98-4.92-10.98-10.98,4.91-10.98,10.98-10.98,10.98,4.92,10.98,10.98"/>
      <path class="cls-2" d="M69.37,57.73c0,3.16,1.3,5.99,3.38,8.02,2.08-2.03,3.38-4.87,3.38-8.02s-1.3-5.99-3.38-8.02c-2.08,2.03-3.38,4.87-3.38,8.02"/>
      <path class="cls-6" d="M72.2,108.37c.19.21.37.42.55.64-.74.83-1.22,1.78-1.94,2.63-5.76,7.76-11.53,15.53-17.29,23.29-2.82,3.79-8.17,4.58-11.95,1.75-3.78-2.83-4.57-8.2-1.75-11.99.01-.02.03-.03.04-.05,2.77-3.73,5.53-7.45,8.3-11.18,2.03-2.74,4.07-5.48,6.1-8.22,1.15-1.55,2.86-5.1,5.24-4.85.31.03.61.15.9.27,4.39,1.78,8.65,4.18,11.8,7.71"/>
      <path class="cls-3" d="M76.78,40.21c-18.51,3.6-30.64,21.59-27.04,40.1,3.6,18.51,21.59,30.64,40.1,27.04,18.51-3.6,30.64-21.59,27.04-40.1-3.6-18.51-21.59-30.64-40.1-27.04"/>
      <path class="cls-6" d="M78.14,43.44c-16.83,3.27-27.87,19.64-24.59,36.49,3.27,16.84,19.63,27.88,36.47,24.6,16.83-3.28,27.87-19.64,24.59-36.49-3.27-16.84-19.63-27.88-36.47-24.6M91.7,113.2c-21.61,4.21-42.61-9.97-46.81-31.59-4.2-21.62,9.96-42.63,31.57-46.84,21.61-4.21,42.61,9.96,46.82,31.59,4.2,21.62-9.96,42.63-31.57,46.84"/>
      <g>
        <path class="cls-5" d="M88.82,84.33c-.51,0-1.02-.22-1.34-.65l-11.87-15.42c-.54-.7-.38-1.69.36-2.21.74-.52,1.78-.36,2.32.34l11.87,15.42c.54.7.38,1.69-.36,2.21-.3.21-.64.3-.98.3"/>
        <path class="cls-5" d="M76.95,84.33c-.34,0-.68-.1-.98-.3-.74-.51-.9-1.5-.36-2.21l11.87-15.42c.54-.71,1.58-.86,2.32-.34.74.51.9,1.5.36,2.21l-11.87,15.42c-.33.42-.83.65-1.34.65"/>
        <path class="cls-5" d="M72.78,84.33c-.51,0-1.02-.22-1.34-.65l-11.87-15.42c-.54-.7-.38-1.69.36-2.21.74-.52,1.78-.36,2.32.34l11.87,15.42c.54.7.38,1.69-.36,2.21-.3.21-.64.3-.98.3"/>
        <path class="cls-5" d="M60.9,84.33c-.34,0-.68-.1-.98-.3-.74-.51-.9-1.5-.36-2.21l11.87-15.42c.54-.71,1.58-.86,2.32-.34.74.51.9,1.5.36,2.21l-11.87,15.42c-.33.42-.83.65-1.34.65"/>
      </g>
    </g>
  </g>
</svg>